<?xml version="1.0" encoding="UTF-8" standalone="no"?>
<svg
   xmlns:dc="http://purl.org/dc/elements/1.1/"
   xmlns:cc="http://creativecommons.org/ns#"
   xmlns:rdf="http://www.w3.org/1999/02/22-rdf-syntax-ns#"
   xmlns:svg="http://www.w3.org/2000/svg"
   xmlns="http://www.w3.org/2000/svg"
   xmlns:sodipodi="http://sodipodi.sourceforge.net/DTD/sodipodi-0.dtd"
   xmlns:inkscape="http://www.inkscape.org/namespaces/inkscape"
   id="Capa_1"
   enable-background="new 0 0 494.982 494.982"
   height="512"
   viewBox="0 0 494.982 494.982"
   width="512"
   version="1.1"
   sodipodi:docname="push-pin.svg"
   inkscape:export-filename="C:\wampNew\www\gazetteer\include\images\icons\push-pin.png"
   inkscape:export-xdpi="96"
   inkscape:export-ydpi="96"
   inkscape:version="0.92.4 (5da689c313, 2019-01-14)">
  <metadata
     id="metadata29">
    <rdf:RDF>
      <cc:Work
         rdf:about="">
        <dc:format>image/svg+xml</dc:format>
        <dc:type
           rdf:resource="http://purl.org/dc/dcmitype/StillImage" />
      </cc:Work>
    </rdf:RDF>
  </metadata>
  <defs
     id="defs27" />
  <sodipodi:namedview
     pagecolor="#ffffff"
     bordercolor="#666666"
     borderopacity="1"
     objecttolerance="10"
     gridtolerance="10"
     guidetolerance="10"
     inkscape:pageopacity="0"
     inkscape:pageshadow="2"
     inkscape:window-width="1920"
     inkscape:window-height="1017"
     id="namedview25"
     showgrid="false"
     inkscape:zoom="0.921875"
     inkscape:cx="439.23711"
     inkscape:cy="207.39674"
     inkscape:window-x="-8"
     inkscape:window-y="-8"
     inkscape:window-maximized="1"
     inkscape:current-layer="Capa_1" />
  <g
     id="g22"
     transform="rotate(-30.677465,247.49101,247.49014)">
    <g
       id="g18">
      <path
         d="M 15.871,486.565 44.456,467.717 C 70.495,450.548 94.73,430.783 116.788,408.725 L 222.876,302.637 192.355,272.116 86.268,378.205 C 64.21,400.263 44.444,424.498 27.276,450.537 L 8.428,479.122 c -3.227,4.894 2.549,10.67 7.443,7.443 z"
         id="path2"
         inkscape:connector-curvature="0"
         style="fill:#dfebfa" />
      <path
         d="M 55.526,450.537 C 72.694,424.498 92.46,400.263 114.518,378.205 L 206.481,286.242 192.356,272.117 86.268,378.205 C 64.21,400.263 44.444,424.498 27.276,450.537 L 8.428,479.122 c -3.227,4.894 2.549,10.67 7.443,7.443 L 43.997,468.02 Z"
         id="path4"
         inkscape:connector-curvature="0"
         style="fill:#b1dbfc" />
      <path
         d="m 431.826,139.878 c -8.131,-8.131 -68.579,-68.579 -76.711,-76.711 l -108.84,101.993 83.559,83.559 z"
         id="path6"
         inkscape:connector-curvature="0"
         style="fill:#fec458" />
      <path
         d="M 391.099,99.151 C 374.772,82.824 358.993,67.045 355.115,63.167 l -108.84,101.993 35.984,35.984 z"
         id="path8"
         inkscape:connector-curvature="0"
         style="fill:#f9ab49" />
      <path
         d="m 479.42,98.532 -82.96,-82.96 c -10.726,-10.726 -28.277,-10.726 -39.003,0 L 350.73,22.3 c -10.726,10.726 -10.726,28.277 0,39.003 l 82.96,82.96 c 10.726,10.726 28.277,10.726 39.003,0 l 6.728,-6.728 c 10.725,-10.725 10.725,-28.277 -10e-4,-39.003 z"
         id="path10"
         inkscape:connector-curvature="0"
         style="fill:#ffe181" />
      <path
         d="m 398.94,72.924 8.231,-8.23 c 7.855,-7.855 18.701,-11.002 28.958,-9.453 L 396.461,15.573 c -10.726,-10.726 -28.277,-10.726 -39.003,0 l -6.728,6.728 c -10.726,10.726 -10.726,28.277 0,39.003 l 38.508,38.508 c -0.857,-9.628 2.374,-19.56 9.702,-26.888 z"
         id="path12"
         inkscape:connector-curvature="0"
         style="fill:#fec458" />
      <path
         d="m 327.702,384.766 c 18.417,-33.878 23.816,-64.549 24.813,-85.94 0.824,-17.688 -5.84,-34.896 -18.361,-47.417 l -90.57,-90.57 c -12.521,-12.521 -29.729,-19.185 -47.417,-18.361 -21.391,0.997 -52.062,6.396 -85.94,24.813 -7.866,4.277 -9.384,14.942 -3.053,21.273 l 199.255,199.255 c 6.331,6.331 16.997,4.813 21.273,-3.053 z"
         id="path14"
         inkscape:connector-curvature="0"
         style="fill:#ffe181" />
      <path
         d="m 165.482,223.656 c 32.836,-20.465 61.329,-28.735 80.898,-31.985 12.602,-2.093 24.431,-0.004 33.785,5.749 l -36.581,-36.581 c -12.521,-12.521 -29.729,-19.185 -47.417,-18.361 -21.391,0.997 -52.062,6.396 -85.941,24.813 -7.866,4.277 -9.384,14.942 -3.053,21.273 l 51.003,51.003 c -1.541,-5.246 1.296,-12.165 7.306,-15.911 z"
         id="path16"
         inkscape:connector-curvature="0"
         style="fill:#fec458" />
    </g>
    <path
       d="m 2.152,474.996 c -3.396,5.159 -2.718,11.812 1.649,16.181 4.369,4.368 11.022,5.046 16.183,1.65 33.379,-21.971 63.783,-40.488 101.729,-78.435 l 38.352,-38.352 c 2.929,-2.93 2.929,-7.678 0,-10.607 -2.93,-2.928 -7.678,-2.928 -10.607,0 l -38.352,38.353 c -36.021,36.022 -66.054,54.582 -90.754,70.841 16.023,-24.346 34.617,-54.531 70.841,-90.755 l 100.349,-100.35 19.915,19.915 -37.25,37.249 c -2.929,2.93 -2.929,7.678 0,10.607 2.93,2.928 7.678,2.928 10.607,0 l 37.249,-37.249 79.063,79.063 c 9.885,9.882 26.49,7.506 33.165,-4.775 19.49,-35.851 24.743,-68.28 25.717,-89.174 0.884,-18.978 -6.019,-37.569 -18.966,-51.399 l 89.811,-95.967 c 13.697,11.335 34.221,10.681 47.143,-2.241 l 6.729,-6.729 c 13.676,-13.677 13.676,-35.933 -0.001,-49.61 l -31.18,-31.179 c -2.927,-2.927 -7.676,-2.93 -10.606,10e-4 -2.929,2.929 -2.929,7.677 0.001,10.606 l 31.179,31.178 c 7.829,7.83 7.829,20.568 0.001,28.397 l -6.729,6.728 c -7.826,7.829 -20.567,7.829 -28.396,0 -8.836,-8.836 -71.82,-71.82 -82.96,-82.96 -7.806,-7.806 -7.804,-20.593 0.001,-28.396 l 6.728,-6.729 c 7.805,-7.805 20.593,-7.804 28.396,0.001 L 418.19,47.89 c 2.93,2.928 7.678,2.928 10.607,0 2.929,-2.93 2.929,-7.678 0,-10.607 l -27.031,-27.03 c -13.67,-13.67 -35.942,-13.667 -49.61,-10e-4 l -6.727,6.728 c -12.905,12.905 -13.594,33.428 -2.242,47.144 l -95.967,89.811 c -13.828,-12.947 -32.404,-19.842 -51.4,-18.966 -20.892,0.974 -53.322,6.226 -89.173,25.716 -12.283,6.677 -14.655,23.286 -4.774,33.166 L 180.936,272.914 80.585,373.265 C 42.515,411.338 23.92,441.921 2.152,474.996 Z m 351.53,-400.15 66.449,66.45 -89.66,95.806 -72.595,-72.595 z M 112.479,183.245 c -2.794,-2.792 -2.132,-7.498 1.331,-9.381 33.35,-18.13 63.385,-23.009 82.708,-23.909 15.524,-0.727 30.756,5.165 41.764,16.172 l 90.57,90.57 c 11.002,11.001 16.896,26.224 16.172,41.763 -0.9,19.323 -5.779,49.358 -23.91,82.708 -1.874,3.443 -6.569,4.145 -9.38,1.332 -4.936,-4.936 -194.483,-194.483 -199.255,-199.255 z"
       id="path20"
       inkscape:connector-curvature="0" />
  </g>
</svg>
